{
  "accessors": [
    {
      "bufferView": 2,
      "componentType": 5126,
      "count": 4,
      "max": [
        -29.99951934814453,
        -0.34634101390838623,
        69.16293334960938
      ],
      "min": [
        -30.258018493652344,
        -0.7562159895896912,
        68.80924987792969
      ],
      "type": "VEC3"
    },
    {
      "bufferView": 1,
      "componentType": 5126,
      "count": 4,
      "max": [
        0.0,
        0.0
      ],
      "min": [
        0.0,
        0.0
      ],
      "type": "VEC2"
    },
    {
      "bufferView": 0,
      "componentType": 5125,
      "count": 4,
      "type": "SCALAR"
    },
    {
      "bufferView": 2,
      "byteOffset": 48,
      "componentType": 5126,
      "count": 6329,
      "max": [
        45.491676330566406,
        14.703840255737305,
        94.750732421875
      ],
      "min": [
        -48.09994888305664,
        -25.56197166442871,
        0.12208600342273712
      ],
      "type": "VEC3"
    },
    {
      "bufferView": 2,
      "byteOffset": 75996,
      "componentType": 5126,
      "count": 6329,
      "max": [
        1.0,
        1.0,
        1.0
      ],
      "min": [
        -1.0,
        -1.0,
        -1.0
      ],
      "type": "VEC3"
    },
    {
      "bufferView": 1,
      "byteOffset": 32,
      "componentType": 5126,
      "count": 6329,
      "max": [
        1.6422109603881836,
        0.996662974357605
      ],
      "min": [
        0.001521000056527555,
        -0.0023189999628812075
      ],
      "type": "VEC2"
    },
    {
      "bufferView": 0,
      "byteOffset": 16,
      "componentType": 5125,
      "count": 21441,
      "type": "SCALAR"
    },
    {
      "bufferView": 2,
      "byteOffset": 151944,
      "componentType": 5126,
      "count": 5393,
      "max": [
        44.373313903808594,
        12.078523635864258,
        94.750732421875
      ],
      "min": [
        -46.726341247558594,
        -25.56197166442871,
        -0.05572500079870224
      ],
      "type": "VEC3"
    },
    {
      "bufferView": 2,
      "byteOffset": 216660,
      "componentType": 5126,
      "count": 5393,
      "max": [
        1.0,
        1.0,
        1.0
      ],
      "min": [
        -1.0,
        -1.0,
        -1.0
      ],
      "type": "VEC3"
    },
    {
      "bufferView": 1,
      "byteOffset": 50664,
      "componentType": 5126,
      "count": 5393,
      "max": [
        1.9299089908599854,
        0.9984790086746216
      ],
      "min": [
        0.001521000056527555,
        0.001521000056527555
      ],
      "type": "VEC2"
    },
    {
      "bufferView": 0,
      "byteOffset": 85780,
      "componentType": 5125,
      "count": 10476,
      "type": "SCALAR"
    }
  ],
  "asset": {
    "extras": {
      "author": "Olivia Sabatka (https://sketchfab.com/discopears)",
      "license": "SKETCHFAB Standard (https://sketchfab.com/licenses)",
      "source": "https://sketchfab.com/3d-models/sugarcube-corner-1a70d3380d534ae589c452ada453f7a4",
      "title": "Sugarcube Corner"
    },
    "generator": "Sketchfab-15.58.0",
    "version": "2.0"
  },
  "bufferViews": [
    {
      "buffer": 0,
      "byteLength": 127684,
      "name": "floatBufferViews",
      "target": 34963
    },
    {
      "buffer": 0,
      "byteLength": 93808,
      "byteOffset": 127684,
      "byteStride": 8,
      "name": "floatBufferViews",
      "target": 34962
    },
    {
      "buffer": 0,
      "byteLength": 281376,
      "byteOffset": 221492,
      "byteStride": 12,
      "name": "floatBufferViews",
      "target": 34962
    }
  ],
  "buffers": [
    {
      "byteLength": 502868,
      "uri": "scene.bin"
    }
  ],
  "images": [
    {
      "uri": "textures/Sugarcube_Corner_baseColor.png"
    },
    {
      "uri": "textures/Sugarcube_Corner_metallicRoughness.png"
    }
  ],
  "materials": [
    {
      "name": "Sugarcube_Corner",
      "occlusionTexture": {
        "index": 1
      },
      "pbrMetallicRoughness": {
        "baseColorTexture": {
          "index": 0
        },
        "metallicFactor": 0.0,
        "metallicRoughnessTexture": {
          "index": 1
        }
      }
    }
  ],
  "meshes": [
    {
      "name": "Object_0",
      "primitives": [
        {
          "attributes": {
            "POSITION": 0,
            "TEXCOORD_0": 1
          },
          "indices": 2,
          "material": 0,
          "mode": 1
        }
      ]
    },
    {
      "name": "Object_1",
      "primitives": [
        {
          "attributes": {
            "NORMAL": 4,
            "POSITION": 3,
            "TEXCOORD_0": 5
          },
          "indices": 6,
          "material": 0,
          "mode": 4
        }
      ]
    },
    {
      "name": "Object_2",
      "primitives": [
        {
          "attributes": {
            "NORMAL": 8,
            "POSITION": 7,
            "TEXCOORD_0": 9
          },
          "indices": 10,
          "material": 0,
          "mode": 4
        }
      ]
    }
  ],
  "nodes": [
    {
      "children": [
        1
      ],
      "matrix": [
        0.09541919827461243,
        0.0,
        0.0,
        0.0,
        0.0,
        2.1187318183149545e-17,
        -0.09541919827461243,
        0.0,
        0.0,
        0.09541919827461243,
        2.1187318183149545e-17,
        0.0,
        0.0,
        0.0,
        0.0,
        1.0
      ],
      "name": "Sketchfab_model"
    },
    {
      "children": [
        2,
        3,
        4
      ],
      "name": "Sugarcube_Corner.obj.cleaner.materialmerger.gles"
    },
    {
      "mesh": 0,
      "name": "Object_2"
    },
    {
      "mesh": 1,
      "name": "Object_3"
    },
    {
      "mesh": 2,
      "name": "Object_4"
    }
  ],
  "samplers": [
    {
      "magFilter": 9729,
      "minFilter": 9987,
      "wrapS": 10497,
      "wrapT": 10497
    }
  ],
  "scene": 0,
  "scenes": [
    {
      "name": "Sketchfab_Scene",
      "nodes": [
        0
      ]
    }
  ],
  "textures": [
    {
      "sampler": 0,
      "source": 0
    },
    {
      "sampler": 0,
      "source": 1
    }
  ]
}
